# xmcd
#
# Track frame offsets:
#	182
#	24322
#	39187
#	60715
#	85170
#	105210
#	131257
#	163215
#	188062
#
# Disc length: 2724 seconds
#
# Revision: 12
# Processed by: cddbd v1.5.2PL0 Copyright (c) Steve Scherf et al.
# Submitted via: audiograbber 1.83.01
#
DISCID=610aa209
DTITLE=Rory Gallagher - Calling Card
DYEAR=1976
DGENRE=Blues
TTITLE0=Do You Read Me
TTITLE1=Country Mile
TTITLE2=Moonchild
TTITLE3=Calling Card
TTITLE4=I'll Admit You're Gone
TTITLE5=Secret Agent
TTITLE6=Jackknife Beat
TTITLE7=Edged In Blue
TTITLE8=Barley And Grape Rag
EXTD=
EXTT0=
EXTT1=
EXTT2=
EXTT3=
EXTT4=
EXTT5=
EXTT6=
EXTT7=
EXTT8=
PLAYORDER=
